<?xml version="1.0" encoding="UTF-8"?>
<svg width="189px" height="71px" viewBox="0 0 189 71" version="1.1" xmlns="http://www.w3.org/2000/svg" xmlns:xlink="http://www.w3.org/1999/xlink">
    <!-- Generator: Sketch 59.1 (86144) - https://sketch.com -->
    <title>logo copy 15</title>
    <desc>Created with Sketch.</desc>
    <defs>
        <filter x="-2.5%" y="-37.3%" width="105.1%" height="174.6%" filterUnits="objectBoundingBox" id="filter-1">
            <feOffset dx="0" dy="5" in="SourceAlpha" result="shadowOffsetOuter1"></feOffset>
            <feGaussianBlur stdDeviation="10" in="shadowOffsetOuter1" result="shadowBlurOuter1"></feGaussianBlur>
            <feColorMatrix values="0 0 0 0 0   0 0 0 0 0   0 0 0 0 0  0 0 0 0.401141827 0" type="matrix" in="shadowBlurOuter1" result="shadowMatrixOuter1"></feColorMatrix>
            <feMerge>
                <feMergeNode in="shadowMatrixOuter1"></feMergeNode>
                <feMergeNode in="SourceGraphic"></feMergeNode>
            </feMerge>
        </filter>
        <polygon id="path-2" points="0.000665178571 0.1612 148.704661 0.1612 148.704661 30.9997343 0.000665178571 30.9997343"></polygon>
    </defs>
    <g id="Page-1" stroke="none" stroke-width="1" fill="none" fill-rule="evenodd">
        <g id="Naslovnica---Tokic---08" transform="translate(-40.000000, -59.000000)">
            <g id="navigation" filter="url(#filter-1)">
                <g id="logo-copy-15" transform="translate(60.000000, 74.000000)">
                    <polygon id="Fill-1" fill="#FEFEFE" points="99.1504338 16.548465 99.1160719 16.5676521 99.1266448 16.5241615 99.1504338 16.548465 109.112739 9.31111427 110.919382 8 108.651497 8 101.73947 8 101.525369 8.17140421 94.1679595 14.0579875 94.1679595 14.0682206 94.1626731 14.063104 94.1679595 14.0579875 94.1679595 8 88 8 88 26 94.1679595 26 94.1679595 19.673394 94.1481354 19.6593235 94.1679595 19.6542069 94.1679595 19.673394 101.007298 25.8042922 101.228007 26 101.529334 26 108.89203 26 111 26"></polygon>
                    <polygon id="Fill-2" fill="#FEFEFE" points="111.690038 8 111 8 111 26 117 26 117 8"></polygon>
                    <polygon id="Fill-3" fill="#FEFEFE" points="49.7471723 8 36 8 36 12.4322058 44.2501663 12.4322058 44.2501663 26 49.7471723 26 49.7471723 12.4322058 58 12.4322058 58 8"></polygon>
                    <polygon id="Fill-4" fill="#FEFEFE" points="133.513647 6 133.97536 6 134.235406 5.61552347 135.083207 4.36462094 136 3 130.914519 3 130.65978 3.40478339 129.855762 4.65703971 129 6"></polygon>
                    <g id="Group-16">
                        <path d="M137.432146,7.17326714 L125.558708,7.17326714 C121.862976,7.17326714 119.729083,7.97572429 119.729083,12.0584243 L119.729083,20.9824386 C119.729083,25.0704529 121.862976,25.8689243 125.558708,25.8689243 L137.432146,25.8689243 C141.129208,25.8689243 143.269753,25.0704529 143.269753,20.9824386 L143.269753,18.0941243 L136.85344,18.08881 L136.85344,21.0129957 L136.836146,21.0329243 L125.823449,21.0329243 L125.823449,21.0515243 L125.800833,21.0329243 L125.823449,21.0329243 L125.823449,11.5934243 L136.85344,11.5934243 L136.85344,11.5827957 L136.866744,11.5934243 L136.85344,11.5934243 L136.85344,14.5215957 L142.379744,14.5109671 L143.269753,14.5069814 L143.269753,12.0584243 C143.269753,7.97572429 141.129208,7.17326714 137.432146,7.17326714" id="Fill-5" fill="#FEFEFE"></path>
                        <path d="M78.832042,21.3743671 L78.832042,21.3690529 L65.9608366,21.3690529 L65.9608366,21.3743671 L65.9608366,21.3690529 L65.9608366,11.4592386 L78.832042,11.4592386 L78.832042,21.3690529 L78.8347027,21.3690529 L78.832042,21.3743671 Z M78.9424616,7.17326714 L65.7546313,7.17326714 C62.0974795,7.17326714 60.1218991,7.93586714 60.1218991,11.96011 L60.1218991,21.0820814 C60.1218991,25.1063243 62.0974795,25.8689243 65.7546313,25.8689243 L78.9424616,25.8689243 C82.6009438,25.8689243 84.5805152,25.1063243 84.5805152,21.0820814 L84.5805152,11.96011 C84.5805152,7.93586714 82.6009438,7.17326714 78.9424616,7.17326714 L78.9424616,7.17326714 Z" id="Fill-7" fill="#FEFEFE"></path>
                        <g id="Group-11">
                            <mask id="mask-3" fill="white">
                                <use xlink:href="#path-2"></use>
                            </mask>
                            <g id="Clip-10"></g>
                            <path d="M27.3581295,29.7681486 L4.05160268,29.7681486 C2.49774554,29.7681486 1.23390625,28.5325771 1.23390625,27.0126914 L1.23390625,4.14930571 C1.23390625,2.62942 2.49774554,1.39384857 4.05160268,1.39384857 L27.3581295,1.39384857 C28.9106562,1.39384857 30.1731652,2.62942 30.1731652,4.14930571 L30.1731652,27.0126914 C30.1731652,28.5325771 28.9106562,29.7681486 27.3581295,29.7681486 M34.8600134,1.39384857 L144.643746,1.39384857 C146.202924,1.39384857 147.470754,2.62942 147.470754,4.14930571 L147.470754,27.0126914 C147.470754,28.5325771 146.202924,29.7681486 144.643746,29.7681486 L34.8600134,29.7681486 C33.2981741,29.7681486 32.027683,28.5325771 32.027683,27.0126914 L32.027683,4.14930571 C32.027683,2.62942 33.2981741,1.39384857 34.8600134,1.39384857 M144.643746,0.160934286 L34.8600134,0.160934286 C33.1917455,0.160934286 31.7150491,1.16267714 31.1004241,2.67857714 C30.4897902,1.16267714 29.0184152,0.160934286 27.3581295,0.160934286 L4.05160268,0.160934286 C1.81793304,0.160934286 0.000665178571,1.95052 0.000665178571,4.14930571 L0.000665178571,27.0126914 C0.000665178571,29.2114771 1.81793304,30.9997343 4.05160268,30.9997343 L27.3581295,30.9997343 C29.0184152,30.9997343 30.4897902,29.99932 31.1004241,28.48342 C31.7150491,29.99932 33.1917455,30.9997343 34.8600134,30.9997343 L144.643746,30.9997343 C146.882737,30.9997343 148.705326,29.2114771 148.705326,27.0126914 L148.705326,4.14930571 C148.705326,1.95052 146.882737,0.160934286 144.643746,0.160934286" id="Fill-9" fill="#FEFEFE" mask="url(#mask-3)"></path>
                        </g>
                        <path d="M6.17112768,15.8044643 C6.17112768,10.6522643 10.4508866,6.45530714 15.704467,6.45530714 C20.9620384,6.45530714 25.2364759,10.6522643 25.2364759,15.8044643 C25.2364759,20.9579929 20.9620384,25.1496357 15.704467,25.1496357 C10.4508866,25.1496357 6.17112768,20.9579929 6.17112768,15.8044643" id="Fill-12" fill="#FEFEFE"></path>
                        <path d="M7.64236964,15.8044643 C7.64236964,11.4440929 11.2596107,7.89149286 15.7043339,7.89149286 C20.1530482,7.89149286 23.7702893,11.4440929 23.7702893,15.8044643 C23.7702893,20.1648357 20.1530482,23.71345 15.7043339,23.71345 C11.2596107,23.71345 7.64236964,20.1648357 7.64236964,15.8044643" id="Fill-14" fill="#E21B23"></path>
                    </g>
                </g>
            </g>
        </g>
    </g>
</svg>